# AST/ASF file generated using VICON BodyLanguage
# -----------------------------------------------
:version 1.10
:name VICON
:units
  mass 1.0
  length 0.45
  angle deg
:documentation
   .ast/.asf automatically generated from VICON data using
   VICON BodyBuilder and BodyLanguage model FoxedUp or BRILLIANT.MOD
:root
   order TX TY TZ RX RY RZ
   axis XYZ
   position 0 0 0  
   orientation 0 0 0 
:bonedata
  begin
     id 1 
     name lhipjoint
     direction 0.577973 -0.728611 0.367523 
     length 2.48544 
     axis 0 0 0  XYZ
  end
  begin
     id 2 
     name lfemur
     direction 0.34202 -0.939693 0  
     length 7.1921  
     axis 0 0 20  XYZ
    dof rx ry rz
    limits (-160.0 20.0)
           (-70.0 70.0)
           (-60.0 70.0)
  end
  begin
     id 3 
     name ltibia
     direction 0.34202 -0.939693 0   
     length 7.71059   
     axis 0 0 20   XYZ
    dof rx
    limits (-10.0 170.0)
  end
  begin
     id 4 
     name lfoot
     direction 0.089538 -0.246004 0.965124   
     length 2.19909   
     axis -90 7.62852e-016 20   XYZ
    dof rx rz
    limits (-45.0 90.0)
           (-70.0 20.0)
  end
  begin
     id 5 
     name ltoes
     direction 1.53544e-011 -4.21829e-011 1   
     length 1.10116   
     axis -90 7.62852e-016 20   XYZ
    dof rx
    limits (-90.0 20.0)
  end
  begin
     id 6 
     name rhipjoint
     direction -0.554414 -0.743062 0.374812   
     length 2.4371  
     axis 0 0 0  XYZ 
  end
  begin
     id 7 
     name rfemur
     direction -0.34202 -0.939693 0   
     length 7.47254   
     axis 0 0 -20   XYZ
    dof rx ry rz
    limits (-160.0 20.0)
           (-70.0 70.0)
           (-70.0 60.0)
  end
  begin
     id 8 
     name rtibia
     direction -0.34202 -0.939693 0   
     length 7.65855   
     axis 0 0 -20   XYZ
    dof rx
    limits (-10.0 170.0)
 end
 begin
     id 9 
     name rfoot
     direction -0.133779 -0.367555 0.92033   
     length 2.43006  
     axis -90 -7.62852e-016 -20   XYZ
    dof rx rz
    limits (-45.0 90.0)
           (-20.0 70.0)
  end
  begin
     id 10 
     name rtoes
     direction -1.53563e-011 -4.21889e-011 1   
     length 1.19625   
     axis -90 -7.62852e-016 -20   XYZ
    dof rx
    limits (-90.0 20.0)
  end
  begin
     id 11 
     name lowerback
     direction 0.0249066 0.998043 -0.0573585   
     length 2.08485   
     axis 0 0 0   XYZ
    dof rx ry rz
    limits (-20.0 45.0)
           (-30.0 30.0)
           (-30.0 30.0)
  end
  begin
     id 12 
     name upperback
     direction 0.0237884 0.999673 0.00943178   
     length 2.08515   
     axis 0 0 0   XYZ
    dof rx ry rz
    limits (-20.0 45.0)
           (-30.0 30.0)
           (-30.0 30.0)
  end
  begin
     id 13 
     name thorax
     direction 0.0106671 0.999301 0.0358174   
     length 2.09037   
     axis 0 0 0   XYZ
    dof rx ry rz
    limits (-20.0 45.0)
           (-30.0 30.0)
           (-30.0 30.0)
  end
  begin
     id 14 
     name lowerneck
     direction -0.0580016 0.987052 0.149546   
     length 1.84454   
     axis 0 0 0   XYZ
    dof rx ry rz
    limits (-20.0 45.0)
           (-30.0 30.0)
           (-30.0 30.0)
  end
  begin
     id 15 
     name upperneck
     direction 0.079456 0.981963 -0.171567   
     length 1.88141   
     axis 0 0 0   XYZ
    dof rx ry rz
    limits (-20.0 45.0)
           (-30.0 30.0)
           (-30.0 30.0)
  end
  begin
     id 16
     name head
     direction 0.0262167 0.9967 -0.0768276  
     length 1.89541  
     axis 0 0 0   XYZ
    dof rx ry rz
    limits (-20.0 45.0)
           (-30.0 30.0)
           (-30.0 30.0)
  end
  begin
     id 17 
     name lclavicle
     direction 0.946135 0.322134 -0.0325326  
     length 3.949  
     axis 0 0 0   XYZ
    dof ry rz
    limits (-20.0 10.0)
           (0.0 20.0)
  end
  begin
     id 18 
     name lhumerus
     direction 1 -4.48964e-011 1.94005e-028   
     length 5.10995   
     axis 180 -30 -90   XYZ
    dof rx ry rz
    limits (-60.0 90.0)
           (-90.0 90.0)
           (-90.0 90.0)
  end
  begin
     id 19
     name lradius
     direction 1 -4.48976e-011 2.87852e-027   
     length 3.21207   
     axis 180 -30 -90   XYZ
    dof rx
    limits (-10.0 170.0)
  end
  begin
     id 20
     name lwrist
     direction 1 -4.48963e-011 1.9975e-027   
     length 1.60604   
     axis 2.96054e-016 90 90   XYZ
    dof ry
    limits (-180.0 0.0)
 end
  begin
     id 21 
     name lhand
     direction 1 -4.48919e-011 4.00227e-027   
     length 0.63349   
     axis -2.5488e-015 90 90   XYZ
    dof rx rz
    limits (-90.0 90.0)
           (-45.0 45.0)
  end
  begin
     id 22 
     name lfingers
     direction 1 -4.49037e-011 7.9652e-027   
     length 0.510736   
     axis -5.0975e-015 90 90   XYZ
    dof rx
    limits (0.0 90.0)
  end
  begin
     id 23
     name lthumb
     direction 0.707107 -6.34922e-011 0.707107   
     length 0.733318   
     axis -90 45 -4.48553e-014   XYZ
    dof rx rz
    limits (-45.0 45.0)
           (-45.0 45.0)
  end
  begin
     id 24 
     name rclavicle
     direction -0.940085 0.328911 -0.0897654   
     length 3.93848  
     axis 0 0 0   XYZ 
    dof ry rz
    limits (-10.0 20.0)
           (-20.0 0.0)
  end
  begin
     id 25 
     name rhumerus
     direction -1 -4.48958e-011 3.02044e-027  
     length 5.25109   
     axis 180 30 90   XYZ
    dof rx ry rz
    limits (-90.0 60.0)
           (-90.0 90.0)
           (-90.0 90.0)
  end
  begin
     id 26 
     name rradius
     direction -1 -4.4897e-011 9.78352e-028   
     length 3.28364   
     axis 180 30 90   XYZ
    dof rx
    limits (-10.0 170.0)
  end
  begin
     id 27 
     name rwrist
     direction -1 -4.48943e-011 1.99918e-027   
     length 1.64182   
     axis 2.96054e-016 -90 -90   XYZ
    dof ry
    limits (-180.0 0.0)
  end
  begin
     id 28
     name rhand
     direction -1 -4.49024e-011 3.98478e-027   
     length 0.599745   
     axis -2.5488e-015 -90 -90   XYZ
    dof rx rz
    limits (-90.0 90.0)
           (-45.0 45.0)
  end
  begin
     id 29
     name rfingers
     direction -1 -4.48914e-011 8.00621e-027   
     length 0.48353   
     axis -5.0975e-015 -90 -90   XYZ
    dof rx
    limits (0.0 90.0)
  end
  begin
     id 30
     name rthumb
     direction -0.707107 -6.34992e-011 0.707107   
     length 0.694255   
     axis -90 -45 4.48553e-014   XYZ
    dof rx rz
    limits (-45.0 45.0)
           (-45.0 45.0)
  end
:hierarchy
  begin
    root lhipjoint rhipjoint lowerback
    lhipjoint lfemur
    lfemur ltibia
    ltibia lfoot
    lfoot ltoes
    rhipjoint rfemur
    rfemur rtibia
    rtibia rfoot
    rfoot rtoes
    lowerback upperback
    upperback thorax
    thorax lowerneck lclavicle rclavicle
    lowerneck upperneck
    upperneck head
    lclavicle lhumerus
    lhumerus lradius
    lradius lwrist
    lwrist lhand lthumb
    lhand lfingers
    rclavicle rhumerus
    rhumerus rradius
    rradius rwrist
    rwrist rhand rthumb
    rhand rfingers
  end

#!OML:ASF E:\CV Data\Top Level 1\Subject 1\Session 1\player.ASF
:FULLY-SPECIFIED
:DEGREES
21
root 8.7397 16.9425 -4.65989 52.2642 -82.8933 -50.4792
lowerback 5.02202 2.11532 4.08154
upperback -0.525174 3.12019 2.92314
thorax -3.30446 1.48288 0.490331
lowerneck -17.5074 10.7491 -2.41428
upperneck 19.8458 14.7326 3.24454
head 8.61447 7.068 3.24126
rclavicle -5.5287e-014 -1.82882e-014
rhumerus -44.561 39.8736 -103.265
rradius 89.6352
rwrist -9.32888
rhand -23.6005 15.998
rfingers 7.12502
rthumb 2.8632 -13.9625
lclavicle -5.5287e-014 -1.82882e-014
lhumerus -43.0982 -37.7913 112.564
lradius 89.3259
lwrist 42.1856
lhand -17.6995 36.0007
lfingers 7.12502
lthumb 8.56038 65.8071
rfemur -18.6049 4.46881 27.3698
rtibia 43.2172
rfoot -25.6271 -7.80221
rtoes 12.0111
lfemur -21.0543 0.900952 -10.7173
ltibia 44.6163
lfoot -23.7969 6.52216
ltoes -7.37059
22
root 8.72671 16.9394 -4.65582 53.3246 -83.0671 -51.5031
lowerback 4.87658 2.16406 4.05588
upperback -0.563645 3.17638 2.90504
thorax -3.26168 1.51193 0.486892
lowerneck -17.4865 10.7443 -2.36532
upperneck 20.058 14.7102 3.27155
head 8.68561 7.05617 3.25063
rclavicle -3.01407e-014 -5.20816e-014
rhumerus -44.5754 40.0075 -103.271
rradius 89.6032
rwrist -9.38526
rhand -23.421 15.9382
rfingers 7.12502
rthumb 3.03656 -14.0199
lclavicle -3.01407e-014 -5.20816e-014
lhumerus -43.2031 -37.5783 112.549
lradius 89.401
lwrist 42.3019
lhand -17.9177 36.0192
lfingers 7.12502
lthumb 8.34976 65.8342
rfemur -18.6475 4.51023 27.2903
rtibia 43.3016
rfoot -25.7063 -7.67544
rtoes 11.9643
lfemur -20.8946 0.483453 -10.7761
ltibia 44.0862
lfoot -23.2336 6.5196
ltoes -7.68616
23
root 8.71434 16.9367 -4.65183 54.3497 -83.2201 -52.4876
lowerback 4.73523 2.2033 4.03045
upperback -0.61084 3.22074 2.88905
thorax -3.23058 1.53483 0.4862
lowerneck -17.4823 10.7426 -2.28188
upperneck 20.2854 14.6877 3.2804
head 8.76939 7.04394 3.25144
rclavicle 3.37934e-014 1.90833e-014
rhumerus -44.5755 40.1277 -103.268
rradius 89.5817
rwrist -9.61842
rhand -23.1813 15.8763
rfingers 7.12502
rthumb 3.26801 -14.0784
lclavicle 3.37934e-014 1.90833e-014
lhumerus -43.3167 -37.3453 112.511
lradius 89.5058
lwrist 42.4753
lhand -18.0864 36.0937
lfingers 7.12502
lthumb 8.18692 65.9151
rfemur -18.6923 4.55251 27.2198
rtibia 43.3778
rfoot -25.7807 -7.56333
rtoes 11.9115
lfemur -20.7224 0.260303 -10.8448
ltibia 43.685
lfoot -22.5882 6.5223
ltoes -7.56
24
root 8.70255 16.9353 -4.64823 55.307 -83.3497 -53.4063
lowerback 4.60143 2.23221 4.00119
upperback -0.662483 3.25192 2.87674
thorax -3.20902 1.55106 0.492076
lowerneck -17.4764 10.7393 -2.1956
upperneck 20.5083 14.6638 3.28121
head 8.85253 7.03048 3.24876
rclavicle 4.52235e-015 5.1684e-015
rhumerus -44.5574 40.2275 -103.25
rradius 89.5695
rwrist -9.96386
rhand -22.911 15.8133
rfingers 7.12502
rthumb 3.52909 -14.1373
lclavicle 4.52235e-015 5.1684e-015
lhumerus -43.4373 -37.0997 112.454
lradius 89.6395
lwrist 42.688
lhand -18.1898 36.2252
lfingers 7.12502
lthumb 8.08718 66.0505
rfemur -18.7252 4.60389 27.162
rtibia 43.4314
rfoot -25.8458 -7.47837
rtoes 11.8518
lfemur -20.5392 0.196493 -10.9089
ltibia 43.4055
lfoot -21.9954 6.46505
ltoes -6.83772
25
root 8.69121 16.9353 -4.64497 56.1726 -83.4557 -54.2448
lowerback 4.48341 2.25148 3.97065
upperback -0.712898 3.27119 2.86813
thorax -3.19557 1.56124 0.50274
lowerneck -17.4583 10.7309 -2.11939
upperneck 20.7089 14.6359 3.27695
head 8.92582 7.01475 3.24336
rclavicle -1.49089e-014 7.15625e-015
rhumerus -44.5184 40.3009 -103.216
rradius 89.5615
rwrist -10.3456
rhand -22.6493 15.7577
rfingers 7.12502
rthumb 3.78179 -14.1885
lclavicle -1.49089e-014 7.15625e-015
lhumerus -43.5621 -36.8437 112.387
lradius 89.7919
lwrist 42.9153
lhand -18.2355 36.4117
lfingers 7.12502
lthumb 8.04301 66.2387
rfemur -18.7308 4.66869 27.1195
rtibia 43.455
rfoot -25.896 -7.43416
rtoes 11.769
lfemur -20.348 0.243255 -10.9637
ltibia 43.2131
lfoot -21.5085 6.36588
ltoes -5.7784
26
root 8.68051 16.9369 -4.64245 56.8388 -83.5397 -54.8976
lowerback 4.38749 2.2579 3.92774
upperback -0.760624 3.27408 2.86479
thorax -3.19308 1.56338 0.525956
lowerneck -17.4164 10.7167 -2.07576
upperneck 20.8654 14.6054 3.27986
head 8.97663 6.99812 3.24041
rclavicle 1.49958e-014 -1.51076e-014
rhumerus -44.4598 40.3482 -103.165
rradius 89.5491
rwrist -10.6884
rhand -22.4327 15.718
rfingers 7.12502
rthumb 3.99089 -14.2244
lclavicle 1.49958e-014 -1.51076e-014
lhumerus -43.6827 -36.5677 112.317
lradius 89.949
lwrist 43.1371
lhand -18.2216 36.6423
lfingers 7.12502
lthumb 8.05649 66.4687
rfemur -18.7072 4.74561 27.0877
rtibia 43.4501
rfoot -25.9333 -7.44245
rtoes 11.6649
lfemur -20.1636 0.341399 -11.0068
ltibia 43.0659
lfoot -21.139 6.2125
ltoes -4.54172
27
root 8.66979 16.9397 -4.64014 57.3008 -83.6146 -55.3685
lowerback 4.31371 2.25653 3.87333
upperback -0.799181 3.26697 2.86182
thorax -3.19436 1.56078 0.555842
lowerneck -17.3486 10.6944 -2.07037
upperneck 20.9755 14.5705 3.28998
head 9.00329 6.9794 3.24029
rclavicle 5.35476e-015 -1.39149e-014
rhumerus -44.3833 40.3617 -103.098
rradius 89.5284
rwrist -10.9426
rhand -22.2851 15.7048
rfingers 7.12502
rthumb 4.1335 -14.2348
lclavicle 5.35476e-015 -1.39149e-014
lhumerus -43.7953 -36.2903 112.243
lradius 90.1003
lwrist 43.3546
lhand -18.1809 36.8932
lfingers 7.12502
lthumb 8.09574 66.7181
rfemur -18.6459 4.83575 27.055
rtibia 43.4243
rfoot -25.9639 -7.50082
rtoes 11.5292
lfemur -19.9838 0.427501 -11.0502
ltibia 42.929
lfoot -20.8695 6.03846
ltoes -3.41371
28
root 8.65945 16.9429 -4.63828 57.5279 -83.6828 -55.62
lowerback 4.25854 2.24822 3.80544
upperback -0.829606 3.25074 2.85693
thorax -3.19845 1.55396 0.591212
lowerneck -17.2695 10.667 -2.08361
upperneck 21.0484 14.5321 3.30182
head 9.0136 6.95936 3.24014
rclavicle 4.41178e-014 -1.03368e-014
rhumerus -44.2896 40.339 -103.017
rradius 89.4939
rwrist -11.0781
rhand -22.2162 15.7378
rfingers 7.12502
rthumb 4.20001 -14.2005
lclavicle 4.41178e-014 -1.03368e-014
lhumerus -43.8927 -36.0242 112.165
lradius 90.2336
lwrist 43.5709
lhand -18.169 37.1593
lfingers 7.12502
lthumb 8.10719 66.9838
rfemur -18.5629 4.94046 27.0203
rtibia 43.3893
rfoot -25.9868 -7.62457
rtoes 11.3396
lfemur -19.8235 0.508917 -11.1027
ltibia 42.7868
lfoot -20.6169 5.86879
ltoes -2.62945
29
root 8.64919 16.9464 -4.63662 57.509 -83.7588 -55.6391
lowerback 4.21401 2.23564 3.717
upperback -0.849332 3.22796 2.84588
thorax -3.19824 1.54447 0.631847
lowerneck -17.1932 10.6374 -2.10365
upperneck 21.0935 14.4922 3.313
head 9.01434 6.93906 3.23927
rclavicle -2.09842e-014 -3.37934e-014
rhumerus -44.1823 40.2813 -102.93
rradius 89.4419
rwrist -11.0877
rhand -22.2223 15.8287
rfingers 7.12502
rthumb 4.19415 -14.1098
lclavicle -2.09842e-014 -3.37934e-014
lhumerus -43.9673 -35.7696 112.08
lradius 90.3334
lwrist 43.7835
lhand -18.1775 37.4249
lfingers 7.12502
lthumb 8.09901 67.2497
rfemur -18.4655 5.05904 26.9678
rtibia 43.3572
rfoot -26.0102 -7.80132
rtoes 11.12
lfemur -19.6682 0.579014 -11.1826
ltibia 42.6379
lfoot -20.3665 5.74951
ltoes -2.18976
30
root 8.63903 16.9504 -4.63497 57.2375 -83.8501 -55.4125
lowerback 4.16961 2.22285 3.60657
upperback -0.859012 3.20336 2.82313
thorax -3.18816 1.53477 0.672951
lowerneck -17.1308 10.6058 -2.12081
upperneck 21.1244 14.4484 3.32587
head 9.01286 6.91782 3.23831
rclavicle 6.69035e-014 1.90833e-014
rhumerus -44.0652 40.1826 -102.843
rradius 89.3706
rwrist -10.9697
rhand -22.296 15.9885
rfingers 7.12502
rthumb 4.12295 -13.9513
lclavicle 6.69035e-014 1.90833e-014
lhumerus -44.0187 -35.5397 111.986
lradius 90.392
lwrist 43.9976
lhand -18.1942 37.6828
lfingers 7.12502
lthumb 8.08287 67.5082
rfemur -18.3655 5.18857 26.8886
rtibia 43.3375
rfoot -26.0383 -8.02412
rtoes 10.8773
lfemur -19.5098 0.594745 -11.2901
ltibia 42.4893
lfoot -20.1651 5.64886
ltoes -1.76492
31
root 8.62903 16.9543 -4.63329 56.7122 -83.9597 -54.933
lowerback 4.11928 2.2098 3.47272
upperback -0.8608 3.17658 2.78839
thorax -3.16707 1.52469 0.715258
lowerneck -17.0871 10.5743 -2.12722
upperneck 21.1477 14.4024 3.33841
head 9.01311 6.89651 3.23641
rclavicle 3.16813e-015 3.18055e-015
rhumerus -43.947 40.0506 -102.77
rradius 89.2784
rwrist -10.7359
rhand -22.4367 16.2077
rfingers 7.12502
rthumb 3.98703 -13.7347
lclavicle 3.16813e-015 3.18055e-015
lhumerus -44.0439 -35.3238 111.883
lradius 90.3997
lwrist 44.2085
lhand -18.1864 37.9507
lfingers 7.12502
lthumb 8.09044 67.7758
rfemur -18.272 5.31942 26.7794
rtibia 43.335
rfoot -26.0743 -8.27747
rtoes 10.6216
lfemur -19.3493 0.587215 -11.4326
ltibia 42.3461
lfoot -20.0118 5.59842
ltoes -1.60415
32
root 8.61905 16.9578 -4.63151 55.9643 -84.0851 -54.2215
lowerback 4.0508 2.19692 3.31753
upperback -0.858909 3.14793 2.74414
thorax -3.13247 1.51429 0.760578
lowerneck -17.06 10.5439 -2.12979
upperneck 21.1752 14.3575 3.35025
head 9.01808 6.87571 3.23525
rclavicle -2.38169e-014 -2.5842e-014
rhumerus -43.839 39.8928 -102.718
rradius 89.168
rwrist -10.4079
rhand -22.6578 16.4615
rfingers 7.12502
rthumb 3.77352 -13.4848
lclavicle -2.38169e-014 -2.5842e-014
lhumerus -44.047 -35.1323 111.763
lradius 90.3667
lwrist 44.446
lhand -18.1481 38.2382
lfingers 7.12502
lthumb 8.12739 68.0619
rfemur -18.1952 5.44759 26.6421
rtibia 43.3477
rfoot -26.1176 -8.54757
rtoes 10.3529
lfemur -19.1968 0.569366 -11.6045
ltibia 42.21
lfoot -19.9109 5.57865
ltoes -1.61371
33
root 8.60901 16.9611 -4.62927 55.117 -84.2094 -53.3997
lowerback 3.96411 2.18576 3.16921
upperback -0.85669 3.1211 2.69401
thorax -3.08647 1.50473 0.796665
lowerneck -17.0394 10.5125 -2.13583
upperneck 21.2072 14.3122 3.36339
head 9.02538 6.85434 3.2356
rclavicle -2.83641e-014 -1.98785e-014
rhumerus -43.7486 39.7099 -102.695
rradius 89.044
rwrist -10.0216
rhand -22.9477 16.7155
rfingers 7.12502
rthumb 3.49357 -13.2356
lclavicle -2.83641e-014 -1.98785e-014
lhumerus -44.0365 -34.9595 111.638
lradius 90.2934
lwrist 44.7115
lhand -18.0822 38.5694
lfingers 7.12502
lthumb 8.19096 68.3907
rfemur -18.1329 5.56568 26.4974
rtibia 43.3687
rfoot -26.1648 -8.81745
rtoes 10.0767
lfemur -19.0535 0.534854 -11.7809
ltibia 42.0799
lfoot -19.8548 5.5634
ltoes -1.62313
34
root 8.59893 16.9641 -4.62629 54.2809 -84.3142 -52.5806
lowerback 3.86347 2.17399 3.05152
upperback -0.856418 3.09451 2.6467
thorax -3.03312 1.49465 0.819133
lowerneck -17.013 10.4817 -2.15463
upperneck 21.2312 14.269 3.38411
head 9.02718 6.8343 3.23961
rclavicle 3.2551e-014 7.95139e-015
rhumerus -43.6858 39.5171 -102.704
rradius 88.9165
rwrist -9.62924
rhand -23.2988 16.9263
rfingers 7.12502
rthumb 3.15457 -13.0301
lclavicle 3.2551e-014 7.95139e-015
lhumerus -44.0163 -34.8009 111.509
lradius 90.1923
lwrist 45.0258
lhand -18.0009 38.9588
lfingers 7.12502
lthumb 8.26947 68.7769
rfemur -18.0781 5.6633 26.3669
rtibia 43.3878
rfoot -26.2118 -9.07031
rtoes 9.80411
lfemur -18.9215 0.510784 -11.9408
ltibia 41.9565
lfoot -19.8211 5.55034
ltoes -1.64026
35
root 8.58886 16.9669 -4.6227 53.5726 -84.3891 -51.886
lowerback 3.75872 2.16272 2.97985
upperback -0.859855 3.07085 2.60551
thorax -2.97921 1.48499 0.822203
lowerneck -16.9865 10.4549 -2.16757
upperneck 21.2638 14.2314 3.39937
head 9.03268 6.81628 3.24211
rclavicle 2.39908e-014 2.94201e-014
rhumerus -43.6552 39.317 -102.749
rradius 88.7959
rwrist -9.28634
rhand -23.6774 17.0519
rfingers 7.12502
rthumb 2.7889 -12.9096
lclavicle 2.39908e-014 2.94201e-014
lhumerus -43.9959 -34.6601 111.379
lradius 90.0772
lwrist 45.4063
lhand -17.895 39.402
lfingers 7.12502
lthumb 8.37169 69.2161
rfemur -18.0202 5.74159 26.2675
rtibia 43.3948
rfoot -26.2545 -9.29429
rtoes 9.5615
lfemur -18.7973 0.509824 -12.0662
ltibia 41.8419
lfoot -19.8062 5.52404
ltoes -1.64051
